<?xml version="1.0" encoding="UTF-8"?>
<svg xmlns="http://www.w3.org/2000/svg" xmlns:xlink="http://www.w3.org/1999/xlink" width="53px" height="53px" viewBox="0 0 53 53" version="1.1">
<title>http://localhost:300</title>
<g id="canvas" >
<rect x="0" y="0" width="53px" height="53px" fill="white" />
<g id="barcode" fill="black">
<rect x="10" y="10" width="7px" height="1px" />
<rect x="19" y="10" width="1px" height="1px" />
<rect x="24" y="10" width="1px" height="1px" />
<rect x="28" y="10" width="3px" height="1px" />
<rect x="33" y="10" width="1px" height="1px" />
<rect x="36" y="10" width="7px" height="1px" />
<rect x="10" y="11" width="1px" height="1px" />
<rect x="16" y="11" width="1px" height="1px" />
<rect x="18" y="11" width="2px" height="1px" />
<rect x="21" y="11" width="2px" height="1px" />
<rect x="25" y="11" width="2px" height="1px" />
<rect x="32" y="11" width="1px" height="1px" />
<rect x="34" y="11" width="1px" height="1px" />
<rect x="36" y="11" width="1px" height="1px" />
<rect x="42" y="11" width="1px" height="1px" />
<rect x="10" y="12" width="1px" height="1px" />
<rect x="12" y="12" width="3px" height="1px" />
<rect x="16" y="12" width="1px" height="1px" />
<rect x="19" y="12" width="3px" height="1px" />
<rect x="25" y="12" width="1px" height="1px" />
<rect x="30" y="12" width="3px" height="1px" />
<rect x="36" y="12" width="1px" height="1px" />
<rect x="38" y="12" width="3px" height="1px" />
<rect x="42" y="12" width="1px" height="1px" />
<rect x="10" y="13" width="1px" height="1px" />
<rect x="12" y="13" width="3px" height="1px" />
<rect x="16" y="13" width="1px" height="1px" />
<rect x="18" y="13" width="2px" height="1px" />
<rect x="21" y="13" width="1px" height="1px" />
<rect x="23" y="13" width="1px" height="1px" />
<rect x="25" y="13" width="5px" height="1px" />
<rect x="32" y="13" width="3px" height="1px" />
<rect x="36" y="13" width="1px" height="1px" />
<rect x="38" y="13" width="3px" height="1px" />
<rect x="42" y="13" width="1px" height="1px" />
<rect x="10" y="14" width="1px" height="1px" />
<rect x="12" y="14" width="3px" height="1px" />
<rect x="16" y="14" width="1px" height="1px" />
<rect x="20" y="14" width="1px" height="1px" />
<rect x="22" y="14" width="2px" height="1px" />
<rect x="27" y="14" width="1px" height="1px" />
<rect x="29" y="14" width="3px" height="1px" />
<rect x="33" y="14" width="1px" height="1px" />
<rect x="36" y="14" width="1px" height="1px" />
<rect x="38" y="14" width="3px" height="1px" />
<rect x="42" y="14" width="1px" height="1px" />
<rect x="10" y="15" width="1px" height="1px" />
<rect x="16" y="15" width="1px" height="1px" />
<rect x="18" y="15" width="1px" height="1px" />
<rect x="20" y="15" width="1px" height="1px" />
<rect x="23" y="15" width="4px" height="1px" />
<rect x="30" y="15" width="2px" height="1px" />
<rect x="34" y="15" width="1px" height="1px" />
<rect x="36" y="15" width="1px" height="1px" />
<rect x="42" y="15" width="1px" height="1px" />
<rect x="10" y="16" width="7px" height="1px" />
<rect x="18" y="16" width="1px" height="1px" />
<rect x="20" y="16" width="1px" height="1px" />
<rect x="22" y="16" width="1px" height="1px" />
<rect x="24" y="16" width="1px" height="1px" />
<rect x="26" y="16" width="1px" height="1px" />
<rect x="28" y="16" width="1px" height="1px" />
<rect x="30" y="16" width="1px" height="1px" />
<rect x="32" y="16" width="1px" height="1px" />
<rect x="34" y="16" width="1px" height="1px" />
<rect x="36" y="16" width="7px" height="1px" />
<rect x="22" y="17" width="1px" height="1px" />
<rect x="25" y="17" width="2px" height="1px" />
<rect x="31" y="17" width="3px" height="1px" />
<rect x="10" y="18" width="5px" height="1px" />
<rect x="16" y="18" width="5px" height="1px" />
<rect x="22" y="18" width="2px" height="1px" />
<rect x="27" y="18" width="1px" height="1px" />
<rect x="29" y="18" width="1px" height="1px" />
<rect x="32" y="18" width="4px" height="1px" />
<rect x="37" y="18" width="1px" height="1px" />
<rect x="39" y="18" width="1px" height="1px" />
<rect x="41" y="18" width="1px" height="1px" />
<rect x="12" y="19" width="1px" height="1px" />
<rect x="14" y="19" width="1px" height="1px" />
<rect x="17" y="19" width="3px" height="1px" />
<rect x="24" y="19" width="1px" height="1px" />
<rect x="27" y="19" width="5px" height="1px" />
<rect x="33" y="19" width="1px" height="1px" />
<rect x="35" y="19" width="2px" height="1px" />
<rect x="41" y="19" width="2px" height="1px" />
<rect x="10" y="20" width="1px" height="1px" />
<rect x="16" y="20" width="1px" height="1px" />
<rect x="18" y="20" width="2px" height="1px" />
<rect x="21" y="20" width="2px" height="1px" />
<rect x="25" y="20" width="2px" height="1px" />
<rect x="31" y="20" width="2px" height="1px" />
<rect x="35" y="20" width="1px" height="1px" />
<rect x="38" y="20" width="1px" height="1px" />
<rect x="11" y="21" width="3px" height="1px" />
<rect x="19" y="21" width="3px" height="1px" />
<rect x="24" y="21" width="3px" height="1px" />
<rect x="29" y="21" width="3px" height="1px" />
<rect x="33" y="21" width="1px" height="1px" />
<rect x="37" y="21" width="1px" height="1px" />
<rect x="40" y="21" width="1px" height="1px" />
<rect x="10" y="22" width="4px" height="1px" />
<rect x="16" y="22" width="2px" height="1px" />
<rect x="19" y="22" width="1px" height="1px" />
<rect x="21" y="22" width="1px" height="1px" />
<rect x="23" y="22" width="1px" height="1px" />
<rect x="25" y="22" width="1px" height="1px" />
<rect x="27" y="22" width="1px" height="1px" />
<rect x="32" y="22" width="1px" height="1px" />
<rect x="38" y="22" width="1px" height="1px" />
<rect x="13" y="23" width="3px" height="1px" />
<rect x="19" y="23" width="2px" height="1px" />
<rect x="22" y="23" width="2px" height="1px" />
<rect x="26" y="23" width="1px" height="1px" />
<rect x="29" y="23" width="5px" height="1px" />
<rect x="35" y="23" width="2px" height="1px" />
<rect x="39" y="23" width="1px" height="1px" />
<rect x="41" y="23" width="2px" height="1px" />
<rect x="13" y="24" width="1px" height="1px" />
<rect x="16" y="24" width="3px" height="1px" />
<rect x="23" y="24" width="6px" height="1px" />
<rect x="30" y="24" width="1px" height="1px" />
<rect x="36" y="24" width="1px" height="1px" />
<rect x="38" y="24" width="2px" height="1px" />
<rect x="41" y="24" width="1px" height="1px" />
<rect x="11" y="25" width="4px" height="1px" />
<rect x="17" y="25" width="1px" height="1px" />
<rect x="19" y="25" width="1px" height="1px" />
<rect x="22" y="25" width="1px" height="1px" />
<rect x="29" y="25" width="5px" height="1px" />
<rect x="36" y="25" width="1px" height="1px" />
<rect x="38" y="25" width="1px" height="1px" />
<rect x="40" y="25" width="1px" height="1px" />
<rect x="11" y="26" width="4px" height="1px" />
<rect x="16" y="26" width="2px" height="1px" />
<rect x="22" y="26" width="6px" height="1px" />
<rect x="29" y="26" width="2px" height="1px" />
<rect x="33" y="26" width="2px" height="1px" />
<rect x="37" y="26" width="2px" height="1px" />
<rect x="41" y="26" width="1px" height="1px" />
<rect x="10" y="27" width="1px" height="1px" />
<rect x="12" y="27" width="3px" height="1px" />
<rect x="19" y="27" width="2px" height="1px" />
<rect x="26" y="27" width="1px" height="1px" />
<rect x="28" y="27" width="2px" height="1px" />
<rect x="33" y="27" width="1px" height="1px" />
<rect x="35" y="27" width="2px" height="1px" />
<rect x="39" y="27" width="1px" height="1px" />
<rect x="41" y="27" width="2px" height="1px" />
<rect x="13" y="28" width="1px" height="1px" />
<rect x="15" y="28" width="2px" height="1px" />
<rect x="18" y="28" width="2px" height="1px" />
<rect x="21" y="28" width="2px" height="1px" />
<rect x="25" y="28" width="4px" height="1px" />
<rect x="32" y="28" width="1px" height="1px" />
<rect x="34" y="28" width="1px" height="1px" />
<rect x="37" y="28" width="1px" height="1px" />
<rect x="39" y="28" width="1px" height="1px" />
<rect x="41" y="28" width="1px" height="1px" />
<rect x="10" y="29" width="1px" height="1px" />
<rect x="13" y="29" width="1px" height="1px" />
<rect x="17" y="29" width="2px" height="1px" />
<rect x="21" y="29" width="1px" height="1px" />
<rect x="24" y="29" width="2px" height="1px" />
<rect x="30" y="29" width="3px" height="1px" />
<rect x="35" y="29" width="6px" height="1px" />
<rect x="10" y="30" width="3px" height="1px" />
<rect x="14" y="30" width="3px" height="1px" />
<rect x="18" y="30" width="4px" height="1px" />
<rect x="23" y="30" width="3px" height="1px" />
<rect x="27" y="30" width="1px" height="1px" />
<rect x="32" y="30" width="1px" height="1px" />
<rect x="34" y="30" width="1px" height="1px" />
<rect x="37" y="30" width="2px" height="1px" />
<rect x="41" y="30" width="1px" height="1px" />
<rect x="10" y="31" width="5px" height="1px" />
<rect x="18" y="31" width="3px" height="1px" />
<rect x="22" y="31" width="1px" height="1px" />
<rect x="24" y="31" width="1px" height="1px" />
<rect x="26" y="31" width="6px" height="1px" />
<rect x="33" y="31" width="1px" height="1px" />
<rect x="35" y="31" width="2px" height="1px" />
<rect x="39" y="31" width="1px" height="1px" />
<rect x="41" y="31" width="2px" height="1px" />
<rect x="10" y="32" width="1px" height="1px" />
<rect x="12" y="32" width="7px" height="1px" />
<rect x="25" y="32" width="3px" height="1px" />
<rect x="30" y="32" width="2px" height="1px" />
<rect x="37" y="32" width="1px" height="1px" />
<rect x="40" y="32" width="2px" height="1px" />
<rect x="10" y="33" width="1px" height="1px" />
<rect x="12" y="33" width="1px" height="1px" />
<rect x="15" y="33" width="1px" height="1px" />
<rect x="19" y="33" width="2px" height="1px" />
<rect x="22" y="33" width="1px" height="1px" />
<rect x="25" y="33" width="2px" height="1px" />
<rect x="31" y="33" width="3px" height="1px" />
<rect x="38" y="33" width="3px" height="1px" />
<rect x="10" y="34" width="1px" height="1px" />
<rect x="13" y="34" width="1px" height="1px" />
<rect x="16" y="34" width="2px" height="1px" />
<rect x="20" y="34" width="1px" height="1px" />
<rect x="22" y="34" width="4px" height="1px" />
<rect x="27" y="34" width="3px" height="1px" />
<rect x="32" y="34" width="7px" height="1px" />
<rect x="42" y="34" width="1px" height="1px" />
<rect x="18" y="35" width="2px" height="1px" />
<rect x="23" y="35" width="1px" height="1px" />
<rect x="26" y="35" width="5px" height="1px" />
<rect x="34" y="35" width="1px" height="1px" />
<rect x="38" y="35" width="2px" height="1px" />
<rect x="42" y="35" width="1px" height="1px" />
<rect x="10" y="36" width="7px" height="1px" />
<rect x="18" y="36" width="1px" height="1px" />
<rect x="21" y="36" width="3px" height="1px" />
<rect x="25" y="36" width="1px" height="1px" />
<rect x="30" y="36" width="1px" height="1px" />
<rect x="32" y="36" width="3px" height="1px" />
<rect x="36" y="36" width="1px" height="1px" />
<rect x="38" y="36" width="2px" height="1px" />
<rect x="41" y="36" width="1px" height="1px" />
<rect x="10" y="37" width="1px" height="1px" />
<rect x="16" y="37" width="1px" height="1px" />
<rect x="19" y="37" width="1px" height="1px" />
<rect x="21" y="37" width="1px" height="1px" />
<rect x="24" y="37" width="3px" height="1px" />
<rect x="29" y="37" width="3px" height="1px" />
<rect x="34" y="37" width="1px" height="1px" />
<rect x="38" y="37" width="3px" height="1px" />
<rect x="42" y="37" width="1px" height="1px" />
<rect x="10" y="38" width="1px" height="1px" />
<rect x="12" y="38" width="3px" height="1px" />
<rect x="16" y="38" width="1px" height="1px" />
<rect x="18" y="38" width="1px" height="1px" />
<rect x="20" y="38" width="2px" height="1px" />
<rect x="27" y="38" width="1px" height="1px" />
<rect x="29" y="38" width="1px" height="1px" />
<rect x="32" y="38" width="1px" height="1px" />
<rect x="34" y="38" width="5px" height="1px" />
<rect x="10" y="39" width="1px" height="1px" />
<rect x="12" y="39" width="3px" height="1px" />
<rect x="16" y="39" width="1px" height="1px" />
<rect x="18" y="39" width="1px" height="1px" />
<rect x="20" y="39" width="1px" height="1px" />
<rect x="22" y="39" width="2px" height="1px" />
<rect x="26" y="39" width="1px" height="1px" />
<rect x="29" y="39" width="3px" height="1px" />
<rect x="34" y="39" width="1px" height="1px" />
<rect x="37" y="39" width="2px" height="1px" />
<rect x="40" y="39" width="1px" height="1px" />
<rect x="10" y="40" width="1px" height="1px" />
<rect x="12" y="40" width="3px" height="1px" />
<rect x="16" y="40" width="1px" height="1px" />
<rect x="18" y="40" width="1px" height="1px" />
<rect x="23" y="40" width="6px" height="1px" />
<rect x="31" y="40" width="2px" height="1px" />
<rect x="34" y="40" width="3px" height="1px" />
<rect x="39" y="40" width="1px" height="1px" />
<rect x="41" y="40" width="1px" height="1px" />
<rect x="10" y="41" width="1px" height="1px" />
<rect x="16" y="41" width="1px" height="1px" />
<rect x="18" y="41" width="1px" height="1px" />
<rect x="22" y="41" width="2px" height="1px" />
<rect x="25" y="41" width="2px" height="1px" />
<rect x="28" y="41" width="2px" height="1px" />
<rect x="31" y="41" width="1px" height="1px" />
<rect x="33" y="41" width="1px" height="1px" />
<rect x="39" y="41" width="2px" height="1px" />
<rect x="10" y="42" width="7px" height="1px" />
<rect x="18" y="42" width="2px" height="1px" />
<rect x="22" y="42" width="1px" height="1px" />
<rect x="24" y="42" width="2px" height="1px" />
<rect x="27" y="42" width="1px" height="1px" />
<rect x="30" y="42" width="1px" height="1px" />
<rect x="32" y="42" width="1px" height="1px" />
<rect x="34" y="42" width="1px" height="1px" />
<rect x="37" y="42" width="1px" height="1px" />
<rect x="41" y="42" width="1px" height="1px" />

</g></g>
</svg>
